M48
; DRILL file {KiCad (5.1.4-0)} date 2019 August 20, Tuesday 18:08:53
; FORMAT={3:3/ absolute / metric / suppress trailing zeros}
; #@! TF.CreationDate,2019-08-20T18:08:53+02:00
; #@! TF.GenerationSoftware,Kicad,Pcbnew,(5.1.4-0)
FMAT,2
METRIC,LZ
T1C0.300
T2C0.400
T3C0.500
T4C0.813
T5C1.000
T6C1.300
T7C1.500
T8C2.400
T9C4.700
T10C0.100
T11C1.200
T12C1.700
T13C1.900
T14C3.000
T15C4.000
%
G90
G05
T1
X09Y-0477
X090275Y-058285
X0903Y-0591
X0905Y-0624
X0951Y-0442
X09605Y-067806
X0961Y-05139
X0967Y-0678
X0969Y-044966
X0969Y-0488
X098Y-0526
X1004Y-050046
X1004Y-0688
X1011Y-05393
X1017Y-055126
X1022Y-1307
X102425Y-057666
X102875Y-060206
X103Y-0688
X1031Y-0679
X103325Y-062746
X103775Y-064575
X1039Y-1369
X105Y-066
X1056Y-0514
X1056Y-0652
X1057Y-0567
X1057Y-044
X1057Y-059
X1057Y-0619
X1057Y-064
X1057Y-0416
X1057Y-0542
X106329Y-067871
X1072Y-1171
X1098Y-0762
X1099Y-0806
X1103Y-0641
X1123Y-0641
X1123Y-083
X1124Y-0449
X1124Y-102
X1132Y-1317
X1219Y-1209
X1233Y-0535
X1233Y-0915
X1233Y-1105
X1233Y-0726
X1274Y-0523
X1274Y-0714
X1274Y-0904
X1274Y-1094
X1285Y-0449
X1286Y-102
X1287Y-064
X1287Y-083
X1313Y-0806
X1313Y-1004
X1314Y-0425
X1314Y-0622
X1328Y-1294
X1369Y-1283
X138Y-1209
X1408Y-1187
X1423Y-0893
X1423Y-051
X1423Y-1083
X1423Y-0702
X1464Y-0499
X1464Y-069
X1464Y-088
X1464Y-1071
X1475Y-0616
X1476Y-0425
X1476Y-0997
X1478Y-0806
X1503Y-0983
X1504Y-0793
X1505Y-0411
X1506Y-0602
X1518Y-1271
X1559Y-1261
X1571Y-1187
X1599Y-1187
X1614Y-0687
X1614Y-0496
X1614Y-0878
X1614Y-1069
X1655Y-0485
X1655Y-0676
X1655Y-0867
X1655Y-1057
X1666Y-0602
X1667Y-0411
X1668Y-0793
X1668Y-0983
X1694Y-0425
X1694Y-0997
X1695Y-0615
X1695Y-0806
X1709Y-1273
X175Y-126
X1762Y-1187
X1804Y-1082
X1804Y-051
X1804Y-07
X1804Y-0891
X1845Y-0499
X1845Y-0689
X1845Y-088
X1845Y-1071
X1856Y-0615
X1856Y-0997
X1857Y-0425
X1859Y-0806
X1885Y-0854
X1885Y-1044
X1886Y-0473
X1886Y-0662
X1995Y-0558
X1995Y-0939
X1995Y-0747
X1995Y-1131
X2036Y-0547
X2036Y-0736
X2036Y-0928
X2036Y-1118
X2047Y-0473
X2047Y-0662
X2049Y-0854
X2049Y-1044
X2072Y-0488
X2075Y-1059
X2076Y-0677
X2076Y-0869
X2185Y-0572
X2185Y-0762
X2185Y-0953
X2185Y-1146
X2226Y-0562
X2226Y-0751
X2226Y-0943
X2226Y-1133
X2237Y-0488
X2237Y-0677
X2239Y-0869
X2239Y-1059
T2
X1698Y-0556
X1732Y-0556
X1508Y-0923
X1542Y-0923
X1336Y-0968
X1127Y-058
X1161Y-058
X2201Y-0999
X2235Y-0999
X1889Y-1015
X1923Y-1015
X2201Y-0618
X2235Y-0618
X137Y-0968
X1542Y-0542
X1336Y-0587
X1127Y-096
X1326Y-0938
X136Y-0938
X1039Y-0895
X1073Y-0895
X1508Y-0542
X1603Y-1158
X1637Y-1158
X137Y-0587
X2202Y-1031
X2236Y-1031
X136Y-0557
X1127Y-0991
X1161Y-0991
X1326Y-0557
X1161Y-096
X1127Y-0611
X1161Y-0611
X1889Y-0983
X1698Y-0968
X1732Y-0968
X1889Y-0604
X1923Y-0604
X1923Y-0633
X1923Y-0983
X2201Y-0649
X2235Y-0649
X1412Y-1158
X1446Y-1158
X1889Y-0633
X1698Y-0936
X1732Y-0936
X1508Y-0954
X1222Y-118
X1256Y-118
X1542Y-0954
X10895Y-117828
X11065Y-120772
X1698Y-0587
X1732Y-0587
X1509Y-0574
X1543Y-0574
T4
X0967Y-0746
X09924Y-0746
X10178Y-0746
X10432Y-0746
X0869Y-0607
X09218Y-04123
X09218Y-04377
X09218Y-04631
X09218Y-04885
X09218Y-05139
X09218Y-05393
X09218Y-05647
X09218Y-05901
X09218Y-06155
X09218Y-06409
X09218Y-06663
X09218Y-06917
X093479Y-042426
X093479Y-044966
X093479Y-047506
X093479Y-050046
X093479Y-052586
X093479Y-055126
X093479Y-057666
X093479Y-060206
X093479Y-062746
X093479Y-065286
X093479Y-067826
X093479Y-070366
X10742Y-04123
X10742Y-04377
X10742Y-04631
X10742Y-04885
X10742Y-05139
X10742Y-05393
X10742Y-05647
X10742Y-05901
X10742Y-06155
X10742Y-06409
X10742Y-06663
X10742Y-06917
X108719Y-042426
X108719Y-044966
X108719Y-047506
X108719Y-050046
X108719Y-052586
X108719Y-055126
X108719Y-057666
X108719Y-060206
X108719Y-062746
X108719Y-065286
X108719Y-067826
X108719Y-070366
X084688Y-053499
X084688Y-058579
X0847Y-0607
X086938Y-053499
X086938Y-058579
T5
X0939Y-095
X0939Y-0975
X0939Y-1
X1084Y-095
X1084Y-1
X1127Y-0765
X1127Y-0786
X1127Y-0806
T6
X085Y-06445
X085Y-07095
T8
X086Y-085
X108Y-085
T9
X1296Y-0596
X2058Y-0618
X1296Y-0976
X2058Y-1
X105Y-1148
T10
X211875Y-05132
X135675Y-08312
X181425Y-08312
X135675Y-10222
X143325Y-08312
X219575Y-10842
X124325Y-10452
X173775Y-08312
X143325Y-10222
X116675Y-10452
X116675Y-06652
X124325Y-06652
X145175Y-12117
X152825Y-12117
X154775Y-06272
X162425Y-06272
X135675Y-04502
X171925Y-12117
X192875Y-06872
X200525Y-06872
X164275Y-12117
X211925Y-10842
X173775Y-10222
X181425Y-10222
X143325Y-04502
X105322Y-122397
X109147Y-129023
X219525Y-05132
X154775Y-08182
X133825Y-12342
X162425Y-08182
X126175Y-12342
X173775Y-04502
X181425Y-04502
X116675Y-08552
X124325Y-08552
X154775Y-10082
X162425Y-10082
X173775Y-06402
X135675Y-06412
X143325Y-06412
X116675Y-04742
X124325Y-04742
X192875Y-08792
X200525Y-10692
X181425Y-06402
X200525Y-08792
X192875Y-10692
X154775Y-04363
X211875Y-08942
X162425Y-04363
X219525Y-08942
X211875Y-07022
X219525Y-07022
X192875Y-04982
X200525Y-04982
T11
X08615Y-0408
X08615Y-0478
X0879Y-0408
X0879Y-0478
T12
X19162Y-0713
X20178Y-0713
X15352Y-0844
X16368Y-0844
X11542Y-0881
X12558Y-0881
X17252Y-0476
X18268Y-0476
X12492Y-126
X13508Y-126
X22078Y-0539
X13442Y-0667
X14458Y-0667
X21062Y-0539
X19162Y-1095
X20178Y-1095
X15352Y-1034
X16368Y-1034
X12558Y-05
X19162Y-0905
X20178Y-0905
X11542Y-05
X21062Y-092
X22078Y-092
X21062Y-0728
X17252Y-0666
X18268Y-0666
X15352Y-04621
X22078Y-0728
X16368Y-04621
X19162Y-0524
X20178Y-0524
X14392Y-12375
X15408Y-12375
X13442Y-0857
X14458Y-0857
X10246Y-122601
X10754Y-131399
X11542Y-0691
X12558Y-0691
X13442Y-1048
X14458Y-1048
X16302Y-12375
X17318Y-12375
X21067Y-111
X22083Y-111
X17252Y-1048
X18268Y-1048
X11542Y-1071
X12558Y-1071
X17252Y-0857
X18268Y-0857
X15352Y-0653
X16368Y-0653
X13442Y-0476
X14458Y-0476
T13
X115Y-0691
X126Y-0691
X1531Y-0844
X1641Y-0844
X134Y-0667
X145Y-0667
X1912Y-1095
X2022Y-1095
X1721Y-0666
X1831Y-0666
X1912Y-0905
X2022Y-0905
X2102Y-0728
X2212Y-0728
X1531Y-04621
X2102Y-092
X2212Y-092
X115Y-05
X126Y-05
X1641Y-04621
X1912Y-0524
X2022Y-0524
X134Y-1048
X1721Y-1048
X145Y-1048
X145Y-0857
X1435Y-12375
X1545Y-12375
X22125Y-111
X115Y-1071
X126Y-1071
X1721Y-0857
X21025Y-111
X1831Y-0857
X134Y-0857
X145Y-0476
X10225Y-122237
X10775Y-131763
X1831Y-1048
X1531Y-0653
X1641Y-0653
X134Y-0476
X1912Y-0713
X2022Y-0713
X1626Y-12375
X1245Y-126
X1355Y-126
X1641Y-1034
X2102Y-0539
X1531Y-1034
X115Y-0881
X126Y-0881
X2212Y-0539
X1721Y-0476
X1831Y-0476
X1736Y-12375
T14
X1345Y-0894
X13569Y-08316
X13696Y-08062
X1395Y-0916
X14204Y-08062
X1536Y-0881
X15479Y-08186
X15606Y-07932
X1586Y-0903
X16114Y-07932
X14331Y-08316
X1726Y-0894
X17379Y-08316
X17506Y-08062
X110669Y-12666
X1155Y-0728
X11669Y-06656
X11796Y-06402
X1205Y-075
X12304Y-06402
X12431Y-06656
X12431Y-06656
X1255Y-0728
X1345Y-1085
X13569Y-10226
X13696Y-09972
X1395Y-1107
X14204Y-09972
X14331Y-08316
X1445Y-0894
X14331Y-10226
X14331Y-10226
X1445Y-1085
X1776Y-0916
X18014Y-08062
X18141Y-08316
X18141Y-08316
X1826Y-0894
X1536Y-069
X15479Y-06276
X15606Y-06022
X1586Y-0712
X16114Y-06022
X16241Y-06276
X16241Y-06276
X1636Y-069
X1345Y-0513
X13569Y-04506
X21829Y-10592
X109105Y-12903
X21075Y-1147
X21321Y-10592
X21956Y-10846
X14331Y-04506
X21956Y-10846
X14331Y-04506
X099296Y-12452
X104296Y-13318
X22075Y-1147
X13696Y-04252
X1445Y-0513
X09989Y-12995
X108129Y-12226
X1395Y-0535
X109105Y-12903
X14204Y-04252
X105295Y-12243
X21194Y-10846
X21575Y-1169
X1917Y-075
X19289Y-06876
X19416Y-06622
X16556Y-11867
X20051Y-06876
X20051Y-06876
X2017Y-075
X17379Y-04506
X18014Y-04252
X17191Y-12121
X1726Y-0513
X1776Y-0535
X1826Y-0513
X1631Y-12745
X17506Y-04252
X18141Y-04506
X16429Y-12121
X1681Y-12965
X17064Y-11867
X1967Y-0772
X1731Y-12745
X19924Y-06622
X17191Y-12121
X18141Y-04506
X16241Y-08186
X16241Y-08186
X1636Y-0881
X125Y-1297
X12619Y-12346
X12746Y-12092
X13Y-1319
X13254Y-12092
X13381Y-12346
X13381Y-12346
X135Y-1297
X1155Y-0918
X11669Y-08556
X11796Y-08302
X1205Y-094
X12304Y-08302
X12431Y-08556
X12431Y-08556
X1255Y-0918
X1345Y-0704
X13569Y-06416
X13696Y-06162
X1395Y-0726
X14204Y-06162
X14331Y-06416
X14331Y-06416
X1445Y-0704
X2107Y-0576
X21189Y-05136
X21316Y-04882
X2157Y-0598
X21824Y-04882
X21951Y-05136
X21951Y-05136
X2207Y-0576
X1917Y-1132
X19289Y-10696
X19416Y-10442
X1967Y-1154
X19924Y-10442
X20051Y-08796
X19416Y-08542
X20051Y-08796
X2017Y-0942
X20051Y-10696
X1536Y-1071
X15479Y-10086
X15606Y-09832
X1586Y-1093
X16114Y-09832
X16241Y-10086
X16241Y-10086
X1636Y-1071
X19289Y-08796
X1967Y-0964
X19924Y-08542
X20051Y-10696
X2017Y-1132
X1917Y-0942
X2107Y-0957
X21189Y-08946
X21316Y-08692
X2157Y-0979
X21824Y-08692
X21951Y-08946
X1255Y-0537
X1826Y-0703
X11669Y-04746
X1205Y-0559
X12304Y-04492
X12431Y-04746
X17379Y-06406
X12431Y-04746
X1726Y-0703
X1776Y-0725
X18014Y-06152
X11796Y-04492
X17506Y-06152
X18141Y-06406
X18141Y-06406
X1155Y-0537
X1536Y-04991
X15479Y-04367
X15606Y-04113
X1586Y-05211
X16114Y-04113
X2207Y-0957
X2107Y-0765
X21189Y-07026
X2157Y-0787
X21824Y-06772
X2207Y-0765
X16241Y-04367
X1636Y-04991
X21316Y-06772
X16241Y-04367
X21951Y-08946
X21951Y-07026
X21951Y-07026
X1917Y-0561
X19289Y-04986
X19416Y-04732
X14519Y-12121
X20051Y-04986
X2017Y-0561
X144Y-12745
X149Y-12965
X15154Y-11867
X154Y-12745
X20051Y-04986
X14646Y-11867
X15281Y-12121
X15281Y-12121
X1967Y-0583
X19924Y-04732
X1726Y-1085
X17379Y-10226
X17506Y-09972
X1776Y-1107
X18014Y-09972
X18141Y-10226
X18141Y-10226
X1826Y-1085
X1155Y-1108
X11669Y-10456
X11796Y-10202
X1205Y-113
X12304Y-10202
X12431Y-10456
X12431Y-10456
X1255Y-1108
T15
X1776Y-0857
X1395Y-0857
X149Y-12375
X1967Y-0524
X1776Y-1048
X1205Y-1071
X1395Y-0476
X105Y-127
X1205Y-0691
X1395Y-1048
X1586Y-0653
X1681Y-12375
X21575Y-111
X1967Y-0713
X13Y-126
X1586Y-1034
X1586Y-0844
X1967Y-0905
X2157Y-0728
X1205Y-0881
X2157Y-092
X1776Y-0666
X1395Y-0667
X2157Y-0539
X1776Y-0476
X1967Y-1095
X1205Y-05
X1586Y-04621
T3
G00X08405Y-04205
M15
G01X08405Y-04315
M16
G05
G00X08405Y-04505
M15
G01X08405Y-04615
M16
G05
G00X08405Y-04905
M15
G01X08405Y-05015
M16
G05
G00X0858Y-05055
M15
G01X0858Y-05165
M16
G05
G00X08825Y-05055
M15
G01X08825Y-05165
M16
G05
G00X09Y-04205
M15
G01X09Y-04315
M16
G05
G00X09Y-04505
M15
G01X09Y-04615
M16
G05
G00X09Y-04905
M15
G01X09Y-05015
M16
G05
T7
G00X10075Y-0919
M15
G01X10205Y-0919
M16
G05
G00X10075Y-1031
M15
G01X10205Y-1031
M16
G05
T0
M30
